<svg width="61" height="27" viewBox="0 0 61 27" fill="none" xmlns="http://www.w3.org/2000/svg">
<g clip-path="url(#clip0_15_18)">
<path d="M4.51503 22.8036C4.03253 23.0511 3.48503 22.6174 3.58253 22.0636L4.62003 16.1511L0.216276 11.9561C-0.194974 11.5636 0.0187758 10.8461 0.570026 10.7686L6.69253 9.89864L9.42253 4.48989C9.66878 4.00239 10.335 4.00239 10.5813 4.48989L13.3113 9.89864L19.4338 10.7686C19.985 10.8461 20.1988 11.5636 19.7863 11.9561L15.3838 16.1511L16.4213 22.0636C16.5188 22.6174 15.9713 23.0511 15.4888 22.8036L10 19.9836L4.51503 22.8036Z" fill="#1E1E1E"/>
</g>
<path d="M32.882 17.66V15.176L38.57 7.04H42.008V14.996H43.484V17.66H42.008V20H38.93V17.66H32.882ZM39.146 10.424L36.122 14.996H39.146V10.424ZM46.7376 20.144C46.1976 20.144 45.7536 19.988 45.4056 19.676C45.0696 19.352 44.9016 18.956 44.9016 18.488C44.9016 18.008 45.0696 17.606 45.4056 17.282C45.7536 16.958 46.1976 16.796 46.7376 16.796C47.2656 16.796 47.6976 16.958 48.0336 17.282C48.3816 17.606 48.5556 18.008 48.5556 18.488C48.5556 18.956 48.3816 19.352 48.0336 19.676C47.6976 19.988 47.2656 20.144 46.7376 20.144ZM59.3237 9.542H53.7077V12.026C53.9477 11.762 54.2837 11.546 54.7157 11.378C55.1477 11.21 55.6157 11.126 56.1197 11.126C57.0197 11.126 57.7637 11.33 58.3517 11.738C58.9517 12.146 59.3897 12.674 59.6657 13.322C59.9417 13.97 60.0797 14.672 60.0797 15.428C60.0797 16.832 59.6837 17.948 58.8917 18.776C58.0997 19.592 56.9837 20 55.5437 20C54.5837 20 53.7497 19.838 53.0417 19.514C52.3337 19.178 51.7877 18.716 51.4037 18.128C51.0197 17.54 50.8097 16.862 50.7737 16.094H53.7797C53.8517 16.466 54.0257 16.778 54.3017 17.03C54.5777 17.27 54.9557 17.39 55.4357 17.39C55.9997 17.39 56.4197 17.21 56.6957 16.85C56.9717 16.49 57.1097 16.01 57.1097 15.41C57.1097 14.822 56.9657 14.372 56.6777 14.06C56.3897 13.748 55.9697 13.592 55.4177 13.592C55.0097 13.592 54.6737 13.694 54.4097 13.898C54.1457 14.09 53.9717 14.348 53.8877 14.672H50.9177V6.842H59.3237V9.542Z" fill="#1E1E1E"/>
<defs>
<clipPath id="clip0_15_18">
<rect width="20" height="20" fill="white" transform="translate(0 3.5)"/>
</clipPath>
</defs>
</svg>
